<svg width="20" height="16" viewBox="0 0 20 16" fill="none" xmlns="http://www.w3.org/2000/svg">
<path fill-rule="evenodd" clip-rule="evenodd" d="M0 1C0 0.447715 0.447715 0 1 0H19C19.5523 0 20 0.447715 20 1V5.375C20 5.92728 19.5523 6.375 19 6.375C18.2236 6.375 17.5455 7.00048 17.5455 8C17.5455 8.99952 18.2236 9.625 19 9.625C19.5523 9.625 20 10.0727 20 10.625V15C20 15.5523 19.5523 16 19 16H1C0.447715 16 0 15.5523 0 15V10.625C0 10.0727 0.447715 9.625 1 9.625C1.77644 9.625 2.45455 8.99952 2.45455 8C2.45455 7.00048 1.77644 6.375 1 6.375C0.447715 6.375 0 5.92728 0 5.375V1ZM2 2V4.52038C3.46957 4.96427 4.45455 6.37136 4.45455 8C4.45455 9.62864 3.46957 11.0357 2 11.4796V14H18V11.4796C16.5304 11.0357 15.5455 9.62864 15.5455 8C15.5455 6.37136 16.5304 4.96427 18 4.52038V2H2ZM8.18652 6.70703C9.01495 6.70703 9.68652 6.03546 9.68652 5.20703C9.68652 4.3786 9.01495 3.70703 8.18652 3.70703C7.3581 3.70703 6.68652 4.3786 6.68652 5.20703C6.68652 6.03546 7.3581 6.70703 8.18652 6.70703ZM12.7071 5.29282C12.3166 4.90229 11.6834 4.90229 11.2929 5.29282L7.29292 9.29282C6.90239 9.68334 6.90239 10.3165 7.29292 10.707C7.68344 11.0976 8.3166 11.0976 8.70713 10.707L12.7071 6.70703C13.0977 6.31651 13.0977 5.68334 12.7071 5.29282ZM12.3657 12.2928C13.1941 12.2928 13.8657 11.6212 13.8657 10.7928C13.8657 9.96439 13.1941 9.29282 12.3657 9.29282C11.5372 9.29282 10.8657 9.96439 10.8657 10.7928C10.8657 11.6212 11.5372 12.2928 12.3657 12.2928Z" fill="#00AB56"/>
</svg>
