<svg width="24" height="24" viewBox="0 0 24 24" fill="none" xmlns="http://www.w3.org/2000/svg">
<g clip-path="url(#clip0)">
<path d="M22.0032 5.76915C20.8985 5.76915 20.0029 6.63043 20.0029 7.69283C20.0033 7.8945 20.0371 8.09481 20.1029 8.28629L18.4806 9.27796C17.4125 9.93242 16.0043 9.71551 15.2022 8.77299L13.6119 6.90225C13.865 6.57461 14.0018 6.17736 14.002 5.7692C14.002 4.70679 13.1064 3.84552 12.0017 3.84552C10.8969 3.84552 10.0014 4.70679 10.0014 5.7692C10.0015 6.17736 10.1383 6.57461 10.3914 6.90225L8.80118 8.77299C7.99917 9.71497 6.59159 9.93183 5.52372 9.27796L3.90057 8.28629C3.96644 8.09481 4.0002 7.8945 4.00057 7.69283C4.00076 6.63043 3.10536 5.76902 2.00059 5.76884C0.895913 5.76866 0.000187561 6.6298 3.3278e-08 7.6922C-0.000187494 8.6895 0.79221 9.52155 1.82525 9.6088L3.00743 16.4282C3.04751 16.66 3.25604 16.8301 3.50048 16.8302H20.503C20.7474 16.8301 20.956 16.66 20.996 16.4282L22.1782 9.6088C23.2785 9.51389 24.0905 8.57913 23.9918 7.52096C23.8995 6.53047 23.0373 5.771 22.0032 5.76915Z" fill="#FFC107"/>
<path d="M12.0017 17.3105C16.6968 17.3105 21.273 17.5894 21.273 16.2614C21.273 14.9334 16.6968 13.9449 12.0017 13.9449C7.30657 13.9449 2.72754 14.9334 2.72754 16.2614C2.72754 17.5894 7.30657 17.3105 12.0017 17.3105Z" fill="#FFC107"/>
</g>
<defs>
<clipPath id="clip0">
<rect width="24" height="23.0806" fill="white"/>
</clipPath>
</defs>
</svg>
