<svg width="27" height="28" viewBox="0 0 27 28" fill="none" xmlns="http://www.w3.org/2000/svg">
<path fill-rule="evenodd" clip-rule="evenodd" d="M4.93946 0.666992C4.20308 0.666992 3.60612 1.24913 3.60612 1.96724V6.35877C3.60612 6.36049 3.60611 6.36221 3.60611 6.36393C3.60611 6.36565 3.60612 6.36737 3.60612 6.36909V13.1308L1.81483 14.8777C1.56479 15.1215 1.42431 15.4522 1.42431 15.7971V22.1801C1.42431 22.8982 2.02126 23.4803 2.75764 23.4803H3.60611V26.0003C3.60611 26.7366 4.20307 27.3336 4.93945 27.3336H9.30307C10.0395 27.3336 10.6364 26.7366 10.6364 26.0003V23.4803H16.6969V26.0003C16.6969 26.7366 17.2939 27.3336 18.0303 27.3336H22.3939C23.1303 27.3336 23.7272 26.7366 23.7272 26.0003V23.4803H24.5758C25.3122 23.4803 25.9091 22.8982 25.9091 22.1801V15.7971C25.9091 15.4522 25.7686 15.1215 25.5186 14.8777L23.7273 13.1308V1.96724C23.7273 1.24913 23.1303 0.666992 22.394 0.666992H4.93946ZM6.27279 7.69727V13.6694C6.27279 14.0143 6.13231 14.345 5.88227 14.5888L4.09098 16.3357V20.8798H23.2424V16.3357L21.4512 14.5888C21.2011 14.345 21.0606 14.0143 21.0606 13.6694V7.69727H6.27279ZM21.0606 5.0306V3.26748H6.27279V5.0306H21.0606ZM21.0606 23.4803H19.3636V24.6669H21.0606V23.4803ZM7.96974 23.4803H6.27278V24.6669H7.96974V23.4803ZM7.33333 11.3337C7.33333 10.045 8.378 9.00033 9.66666 9.00033H17.6667C18.9553 9.00033 20 10.045 20 11.3337V12.667C20 13.9557 18.9553 15.0003 17.6667 15.0003H9.66666C8.378 15.0003 7.33333 13.9557 7.33333 12.667V11.3337ZM9.66666 11.0003C9.48257 11.0003 9.33333 11.1496 9.33333 11.3337V12.667C9.33333 12.8511 9.48257 13.0003 9.66666 13.0003H17.6667C17.8508 13.0003 18 12.8511 18 12.667V11.3337C18 11.1496 17.8508 11.0003 17.6667 11.0003H9.66666ZM2.99999 9.63664C2.99999 8.90026 2.40304 8.3033 1.66666 8.3033C0.930281 8.3033 0.333327 8.90026 0.333327 9.63664V11.8184C0.333327 12.5548 0.930281 13.1518 1.66666 13.1518C2.40304 13.1518 2.99999 12.5548 2.99999 11.8184V9.63664ZM25.6667 8.3033C26.403 8.3033 27 8.90026 27 9.63664V11.8184C27 12.5548 26.403 13.1518 25.6667 13.1518C24.9303 13.1518 24.3333 12.5548 24.3333 11.8184V9.63664C24.3333 8.90026 24.9303 8.3033 25.6667 8.3033ZM8.21224 18.3639C8.21224 18.9664 7.72383 19.4548 7.12134 19.4548C6.51885 19.4548 6.03043 18.9664 6.03043 18.3639C6.03043 17.7614 6.51885 17.273 7.12134 17.273C7.72383 17.273 8.21224 17.7614 8.21224 18.3639ZM20.2122 19.4548C20.8147 19.4548 21.3031 18.9664 21.3031 18.3639C21.3031 17.7614 20.8147 17.273 20.2122 17.273C19.6097 17.273 19.1213 17.7614 19.1213 18.3639C19.1213 18.9664 19.6097 19.4548 20.2122 19.4548Z" fill="#27272A"/>
</svg>
