<svg width="28" height="26" viewBox="0 0 28 26" fill="none" xmlns="http://www.w3.org/2000/svg">
<path fill-rule="evenodd" clip-rule="evenodd" d="M1.97823 0.759766C1.25392 0.759766 0.666756 1.34693 0.666756 2.07124C0.666756 2.79554 1.25392 3.38271 1.97823 3.38271H3.94543V16.2504C2.04938 16.8147 0.666756 18.5711 0.666756 20.6505C0.666756 23.1855 2.72183 25.2406 5.2569 25.2406C7.33625 25.2406 9.09267 23.858 9.65696 21.9619H26.0218C26.7462 21.9619 27.3333 21.3748 27.3333 20.6505C27.3333 19.9262 26.7462 19.339 26.0218 19.339H9.65696C9.21634 17.8585 8.04888 16.691 6.56837 16.2504V2.07124C6.56837 1.34693 5.98121 0.759766 5.2569 0.759766H1.97823ZM5.2569 18.6833C4.17044 18.6833 3.2897 19.564 3.2897 20.6505C3.2897 21.7369 4.17044 22.6177 5.2569 22.6177C6.34336 22.6177 7.22411 21.7369 7.22411 20.6505C7.22411 19.564 6.34336 18.6833 5.2569 18.6833ZM10.7213 2.94558C9.997 2.94558 9.40984 3.53274 9.40984 4.25705V15.186C9.40984 15.9103 9.997 16.4974 10.7213 16.4974H23.836C24.5603 16.4974 25.1475 15.9103 25.1475 15.186V4.25705C25.1475 3.53274 24.5603 2.94558 23.836 2.94558H10.7213ZM12.0328 13.8745V5.56852H22.5245V13.8745H12.0328Z" fill="#27272A"/>
</svg>
