<svg width="27" height="28" viewBox="0 0 27 28" fill="none" xmlns="http://www.w3.org/2000/svg">
<path fill-rule="evenodd" clip-rule="evenodd" d="M0 4.16426C0 2.2323 1.56531 0.666992 3.49727 0.666992H18.7978C19.5221 0.666992 20.1093 1.25416 20.1093 1.97847V3.07137C20.1093 3.79567 19.5221 4.38284 18.7978 4.38284C18.148 4.38284 17.6086 3.91021 17.5045 3.28995H3.49727C3.01612 3.28995 2.6265 3.67738 2.62298 4.1577L2.62299 4.16429C2.62299 4.4692 2.77859 4.73736 3.01481 4.89379C3.15303 4.98531 3.31886 5.03858 3.49727 5.03858L3.50573 5.03861H23.1695C23.8938 5.03861 24.4809 5.62578 24.4809 6.35008V12.6888H25.3553C26.0796 12.6888 26.6667 13.276 26.6667 14.0003V18.3719C26.6667 19.0962 26.0796 19.6834 25.3553 19.6834H24.4809V26.0222C24.4809 26.7465 23.8938 27.3337 23.1695 27.3337H4.59021C2.05497 27.3337 4.04387e-05 25.2788 4.04387e-05 22.7435V4.18127L0 4.16426ZM21.858 19.6834H19.8908C17.9588 19.6834 16.3935 18.1181 16.3935 16.1861C16.3935 14.2542 17.9588 12.6888 19.8908 12.6888H21.858V7.66156H3.49731C3.19539 7.66156 2.90243 7.62333 2.62299 7.55145V22.7435C2.62299 23.8302 3.50359 24.7108 4.59021 24.7108H21.858V19.6834ZM23.159 15.3118H19.8908C19.4074 15.3118 19.0165 15.7028 19.0165 16.1861C19.0165 16.6695 19.4074 17.0604 19.8908 17.0604H24.0438V15.3118H23.1799C23.1765 15.3118 23.173 15.3118 23.1695 15.3118C23.166 15.3118 23.1625 15.3118 23.159 15.3118Z" fill="#27272A"/>
</svg>
